<?xml version="1.0" encoding="utf-8" ?><svg xmlns="http://www.w3.org/2000/svg" xmlns:xlink="http://www.w3.org/1999/xlink" width="231" height="281" viewBox="0 0 231 281"><clipPath id="cl_4"><rect x="-3.0517578e-05" y="-1.5258789e-05" width="231.319" height="280.64716"/></clipPath><g clip-path="url(#cl_4)"><path fill="#C5F608" transform="matrix(0.373698 0 0 0.373698 -407.331 -149.853)" d="M1123.57 411.971L1334.87 412.274C1387.88 412.301 1442.01 409.1 1493.56 419.706C1497.75 420.547 1505.55 421.901 1509.33 423.098C1519 425.009 1529.11 428.906 1538.33 432.523C1577.23 449.007 1606.57 472.606 1626.4 510.694C1629.33 517.111 1632.19 523.56 1634.99 530.04C1648.53 565.806 1648.55 619.095 1631.78 653.693C1624.52 668.661 1616.27 690.814 1598.81 694.45C1585.6 697.339 1572.46 700.543 1559.41 704.059C1538.78 709.542 1518.08 714.72 1497.3 719.593L1461.88 728.776L1404.61 744.297C1415.02 754.651 1432.37 766.337 1441.17 776.247C1448.8 782.665 1456.99 789.421 1463.81 796.676C1419.34 785.693 1358.92 793.654 1312.54 791.127C1303.09 790.612 1260.38 790.256 1252.59 791.941C1254.25 805.107 1253.27 846.26 1253.25 860.921C1240.02 878.947 1212.5 909.365 1197.15 927.756L1166.29 964.628C1162.71 968.949 1155.13 978.845 1151.74 982.167L1148.16 986.362C1143.02 993.865 1130.31 1008.19 1124.02 1015.7L1123.64 599.77C1123.73 538.063 1124.84 473.476 1123.57 411.971ZM1253.15 680.21L1365.01 680.309C1422.87 680.308 1497.8 687.623 1512.53 614.126C1516.29 571.289 1502.7 545.214 1461.87 529.379C1431.89 521.181 1397.01 522.747 1365.86 523.303C1328.88 523.964 1290.19 522.167 1253.46 523.86C1253.38 574.767 1254.43 629.672 1253.15 680.21Z"/><path fill="#D0F914" transform="matrix(0.373698 0 0 0.373698 -407.331 -149.853)" d="M1123.57 411.971L1334.87 412.274C1387.88 412.301 1442.01 409.1 1493.56 419.706L1492.15 419.909C1479.74 421.557 1442.86 417.742 1426.91 417.654L1203.3 416.212C1193.68 416.082 1144.88 414.458 1139.28 416.134C1134.91 424.499 1136.47 508.468 1136.47 522.54L1136.46 700.18L1136.42 874.815C1136.37 905.584 1135.34 942.305 1136.61 972.594C1140.87 973.147 1140.11 972.426 1143.02 974.733C1143.56 977.745 1143.02 978.53 1142.02 981.56L1142.9 982.529L1143.5 982.103C1145.59 980.641 1145.91 980.344 1148.41 979.468C1151.28 980.849 1150.35 979.823 1151.74 982.167L1148.16 986.362C1143.02 993.865 1130.31 1008.19 1124.02 1015.7L1123.64 599.77C1123.73 538.063 1124.84 473.476 1123.57 411.971Z"/><path fill="#D0F914" transform="matrix(0.373698 0 0 0.373698 -407.331 -149.853)" d="M1252.59 791.941C1252.04 794.514 1252.13 794.929 1250.62 797.135C1248.53 794.759 1248.52 789.651 1249.3 786.662C1255.13 781.685 1299.01 783.779 1308.62 783.837L1394.7 784.058C1407.07 784.19 1422.39 784.583 1435.02 783.653C1437.72 783.454 1439.8 778.801 1441.17 776.247C1448.8 782.665 1456.99 789.421 1463.81 796.676C1419.34 785.693 1358.92 793.654 1312.54 791.127C1303.09 790.612 1260.38 790.256 1252.59 791.941Z"/><path fill="#D0F914" transform="matrix(0.373698 0 0 0.373698 -407.331 -149.853)" d="M1461.88 728.776C1458.33 720.894 1447.38 727.86 1440.56 722.849L1440.55 720.799C1447.95 717.37 1470.76 721.799 1478.93 717.878C1482.36 716.236 1486.54 715.728 1490.33 715.15L1489.81 714.258C1493.18 710.855 1491.42 711.618 1496.41 711.525C1496.4 714.766 1496.44 715.665 1497.13 718.85L1497.3 719.593L1461.88 728.776Z"/><path fill="#D0F914" transform="matrix(0.373698 0 0 0.373698 -407.331 -149.853)" d="M1509.33 423.098C1519 425.009 1529.11 428.906 1538.33 432.523C1532.82 433.915 1482.38 432.706 1479.24 429.462C1486.62 422.858 1503.54 432.821 1509.33 423.098Z"/><path fill="#D0F914" transform="matrix(0.373698 0 0 0.373698 -407.331 -149.853)" d="M1634.99 530.04C1632.76 530.446 1631.61 530.336 1629.4 530.274C1623.46 525.831 1619.91 526.838 1616.18 522.294C1615.82 519.005 1615.68 520.295 1617.6 517.061C1620.95 516.133 1620.18 520.835 1624.47 522.019C1626.41 518.745 1625.43 515.816 1626.4 510.694C1629.33 517.111 1632.19 523.56 1634.99 530.04Z"/><path fill="#D0F914" transform="matrix(0.373698 0 0 0.373698 -407.331 -149.853)" d="M1461.87 529.379C1464.17 528.881 1465.31 528.557 1467.54 529.005C1472.95 530.093 1486.53 524.841 1490.24 530.276C1490.63 530.844 1491.7 532.319 1492.11 532.946C1495.48 533.924 1496.09 533.92 1499.6 533.86C1501.01 535.354 1500.86 537.467 1501.07 539.652C1498.45 542.362 1497.24 538.946 1496.12 542.362C1498.36 546.417 1500.85 550.373 1501.98 554.839C1515.96 552.336 1508.48 565.764 1515.51 565.808C1514.97 563.225 1514.79 562.702 1513.83 560.228L1515.89 558.92L1517.83 559.393C1521.09 566.514 1520.81 635.511 1517.67 639.515C1516.12 634.697 1516.5 628.889 1516.04 623.789C1515.36 616.34 1513.24 621.151 1512.53 614.126C1516.29 571.289 1502.7 545.214 1461.87 529.379Z"/><path fill="#C5F608" transform="matrix(0.373698 0 0 0.373698 -407.331 -149.853)" d="M1618.83 720.163C1640.5 713.62 1670.83 705.691 1693.05 700.565C1688.31 734.086 1685.07 772.429 1681.77 806.197C1679.76 827.758 1677.35 853.495 1674.49 874.814C1673 895.195 1670.17 915.587 1668.76 935.999C1661.79 929.099 1650.57 919.535 1644.75 913.332C1635.33 907.763 1614.74 883.574 1603.12 877.325C1599.97 877.709 1600.57 878.115 1597.7 881.028C1594.37 885.043 1589.67 891.11 1586.26 894.782C1574.54 909.894 1562.54 922.46 1550.53 936.903C1511.56 983.756 1472.02 1030.15 1431.95 1076.06C1403.6 1051.61 1375.42 1026.97 1347.39 1002.15C1337.43 993.399 1326.52 984.803 1316.94 976.093C1301.04 997.868 1282.77 1017.02 1265.82 1037.82C1241.97 1067.11 1215.92 1095.32 1192.49 1124.83C1174.37 1108.16 1154.63 1091.82 1136.04 1075.54L1123.59 1064.38C1125.91 1060.65 1132.23 1053.28 1135.23 1049.58C1163.74 1016.49 1192 983.172 1219.99 949.64C1223.84 944.76 1227.58 940.479 1231.69 935.818C1235.06 930.568 1270.55 890.068 1276.26 883.845C1281.33 877.351 1287.23 870.485 1292.53 864.089C1293.85 861.977 1299.41 855.343 1301.23 853.05C1303.26 850.242 1304.93 847.163 1307.91 845.747C1313.59 848.23 1340.52 873.625 1347.87 879.728L1411.17 935.24C1413.91 937.602 1417.21 940.291 1419.75 942.778C1422.54 944.546 1421.11 944.246 1424.11 944.09C1429.86 940.325 1439.46 927.603 1444.17 921.755C1448.09 916.677 1451.4 912.523 1455.66 907.739C1463.25 898.2 1471.12 888.889 1479.26 879.818C1481.82 876.543 1484.9 873.18 1487.66 870.031C1492.66 861.658 1531.96 821.841 1532.02 815.741C1529.91 811.707 1525.28 807.98 1521.8 804.78C1505.31 791.442 1485.92 773.386 1469.18 759.122C1474.61 757.727 1480.05 756.388 1485.51 755.105C1490.93 753.647 1496.25 752.46 1501.72 751.225C1519.37 745.884 1539.35 740.878 1557.25 736.555C1562.22 734.022 1610.69 722.144 1618.83 720.163Z"/><path fill="#D0F914" transform="matrix(0.373698 0 0 0.373698 -407.331 -149.853)" d="M1618.83 720.163C1640.5 713.62 1670.83 705.691 1693.05 700.565C1688.31 734.086 1685.07 772.429 1681.77 806.197C1677.16 799.473 1680.55 779.971 1680.05 770.815C1679.87 763.102 1680.19 752.71 1679.86 745.284C1679.65 740.655 1680.64 713.793 1679.4 710.709C1675.4 710.427 1664.55 709.971 1661.89 712.971C1664.93 715.275 1669.31 714.917 1674.09 716.288L1674.82 717.715L1673.5 719.707C1667.16 722.491 1625.36 722.473 1618.83 720.163Z"/><path fill="#D0F914" transform="matrix(0.373698 0 0 0.373698 -407.331 -149.853)" d="M1469.18 759.122C1474.61 757.727 1480.05 756.388 1485.51 755.105C1485.62 761.796 1489.38 768.817 1495.05 772.614C1496.48 771.129 1496.84 770.634 1498.03 768.939C1501.17 772.09 1501.68 779.604 1503 784.035C1503.05 784.228 1505.48 784.421 1505.88 784.406C1511.92 784.175 1514.69 781.991 1519.84 785.988C1522.32 790.062 1523.06 800.338 1521.8 804.78C1505.31 791.442 1485.92 773.386 1469.18 759.122Z"/><path fill="#D0F914" transform="matrix(0.373698 0 0 0.373698 -407.331 -149.853)" d="M1301.23 853.05C1303.26 850.242 1304.93 847.163 1307.91 845.747C1313.59 848.23 1340.52 873.625 1347.87 879.728C1340.92 880.346 1335.95 884.411 1328.14 880.307C1321.37 876.75 1326.54 867.298 1321.52 864.115C1319.79 867.022 1320.96 866.152 1318.36 867.365L1316.34 866.187L1315.86 861.778L1314.61 860.972C1313.54 861.975 1312.92 862.501 1311.76 863.389C1300.54 864.043 1304.64 859.785 1301.23 853.05Z"/><path fill="#D0F914" transform="matrix(0.373698 0 0 0.373698 -407.331 -149.853)" d="M1644.75 913.332L1646.71 912.09C1651.54 911.954 1660.91 910.433 1664.81 911.728C1664.82 910.228 1664.8 899.338 1665.01 898.842C1667.69 892.444 1669.58 878.16 1673.37 872.823L1674.49 874.814C1673 895.195 1670.17 915.587 1668.76 935.999C1661.79 929.099 1650.57 919.535 1644.75 913.332Z"/><path fill="#D0F914" transform="matrix(0.373698 0 0 0.373698 -407.331 -149.853)" d="M1501.72 751.225C1519.37 745.884 1539.35 740.878 1557.25 736.555C1555.31 740.445 1549.73 742.407 1545.47 744.511C1548.67 746.364 1552.73 747.13 1554.09 749.279C1551.84 753.269 1505.56 752.751 1501.72 751.225Z"/><path fill="#D0F914" transform="matrix(0.373698 0 0 0.373698 -407.331 -149.853)" d="M1135.23 1049.58C1138.68 1050.04 1139.99 1049.92 1142.83 1051.74C1142.46 1054.6 1138.46 1055.27 1138.71 1058.43C1139.27 1065.59 1144.52 1067.56 1140.28 1074.27L1136.04 1075.54L1123.59 1064.38C1125.91 1060.65 1132.23 1053.28 1135.23 1049.58Z"/><path fill="#D0F914" transform="matrix(0.373698 0 0 0.373698 -407.331 -149.853)" d="M1292.53 864.089L1292.75 864.963C1294.11 870.113 1296.22 872.617 1296.08 877.148C1293.93 880.869 1279.84 884.98 1276.26 883.845C1281.33 877.351 1287.23 870.485 1292.53 864.089Z"/><path fill="#D0F914" transform="matrix(0.373698 0 0 0.373698 -407.331 -149.853)" d="M1231.69 935.818C1232.21 940.601 1233.5 954.905 1230.73 958.402C1227.13 956.91 1225.97 954.635 1224.32 950.976C1222.68 950.378 1221.71 949.957 1219.99 949.64C1223.84 944.76 1227.58 940.479 1231.69 935.818Z"/><path fill="#D0F914" transform="matrix(0.373698 0 0 0.373698 -407.331 -149.853)" d="M1586.26 894.782C1583.55 890.649 1582.49 885.078 1584.95 880.649C1588.99 877.22 1593.86 877.355 1597.7 881.028C1594.37 885.043 1589.67 891.11 1586.26 894.782Z"/><path fill="#D0F914" transform="matrix(0.373698 0 0 0.373698 -407.331 -149.853)" d="M1487.66 870.031C1488.82 875.141 1489.18 887.556 1485.85 892.978L1484.52 893.796C1481.8 891.037 1482.33 886.204 1482.69 882.643C1481.65 881.049 1480.9 880.816 1479.26 879.818C1481.82 876.543 1484.9 873.18 1487.66 870.031Z"/><path fill="#D0F914" transform="matrix(0.373698 0 0 0.373698 -407.331 -149.853)" d="M1419.75 942.778L1418.46 943.764C1413.4 944.165 1403.67 948.723 1400.33 942.434L1401.64 939.589C1407.64 939.438 1408.13 940.084 1411.17 935.24C1413.91 937.602 1417.21 940.291 1419.75 942.778Z"/><path fill="#D0F914" transform="matrix(0.373698 0 0 0.373698 -407.331 -149.853)" d="M1455.66 907.739C1456.13 912.3 1457.13 920.731 1454.54 924.227C1450.06 924.607 1450.08 922.16 1444.17 921.755C1448.09 916.677 1451.4 912.523 1455.66 907.739Z"/></g></svg>